<?xml version="1.0" standalone="no"?><!DOCTYPE svg PUBLIC "-//W3C//DTD SVG 1.1//EN" "http://www.w3.org/Graphics/SVG/1.1/DTD/svg11.dtd"><svg t="1537178624420" class="icon" style="" viewBox="0 0 1024 1024" version="1.1" xmlns="http://www.w3.org/2000/svg" p-id="5531" xmlns:xlink="http://www.w3.org/1999/xlink" width="200" height="200"><defs><style type="text/css"></style></defs><path d="M512.045151 428.843317c-69.735576-0.090302-127.032077 53.458674-127.212681 118.859763-0.135453 65.220485 57.206199 118.882339 127.122379 118.97264 69.825878 0.045151 127.212681-53.616702 127.212681-118.882338-0.045151-65.355938-57.228775-118.859763-127.122379-118.950065z m-0.158028 178.481536c-34.969378-0.045151-63.527326-26.639035-63.640204-59.260566-0.067726-32.937587 28.445072-59.802377 63.595053-59.870103 35.10483-0.045151 63.820807 26.729337 63.865958 59.621773 0.045151 32.82471-28.625675 59.554047-63.820807 59.508896zM1015.635794 254.199608c-14.561168-39.032959-51.088252-63.256421-95.358716-63.391874-42.080646-0.090302-84.161291 0-126.241936 0H105.235477c-34.833925 0-62.917789 12.732556-83.642056 39.07811a85.560969 85.560969 0 0 0-17.586278 41.403382c-0.270905 1.670584-0.722415 3.296016-1.083622 4.944024v542.98481c1.760885 7.404749 2.799356 15.035252 5.46326 22.123945 14.651469 39.416742 51.268855 63.324147 96.397187 63.369298h375.136312v59.712075h-6.185674c-81.677991 0-163.355982 0-245.033973-0.045151-12.70998 0-23.13984 3.928129-29.912476 14.290262-11.91984 18.353844-0.270905 41.31308 22.462576 44.586521 2.641328 0.361207 5.260081 0.474085 7.923984 0.474085 188.595339 0 377.145528 0 565.763443 0.04515 12.800282 0 23.455896-3.747525 30.386561-14.290262 11.761811-18.17324 0.383783-41.132476-22.033643-44.496219a65.085033 65.085033 0 0 0-9.413964-0.564386H544.034569v-59.712075h6.343702c122.900769 0 245.914416 0.090302 368.837761-0.045151 38.739478-0.090302 68.448775-15.780242 88.58608-46.821491 6.614608-10.271831 10.42986-21.695011 12.190745-33.592274 0.270905-1.670584 0.722415-3.296016 1.083622-4.989176V276.255826c-1.783461-7.382173-2.799356-14.990101-5.440685-22.056218z m-78.540003 587.548755c-5.643863 2.415574-12.46165 3.47662-18.760202 3.47662-102.53771 0.180604-205.097996 0.135453-307.680857 0.135453h-98.925637c-135.543023 0-271.108622 0-406.651646 0.045151-15.870544 0-28.196742-5.734165-34.924227-19.347164a40.974448 40.974448 0 0 1-3.566922-17.495977c-0.203179-90.346965-0.112877-180.693931-0.112877-271.040896l-0.022575-251.490553c0-14.628894 6.230825-25.87147 20.475936-32.418351 4.018431-1.873763 8.759276-2.438149 13.274367-3.341167 1.896338-0.406358 3.97328-0.180604 5.95992-0.180604 270.589387 0 541.201349 0.045151 811.723009-0.045151 15.960846 0 28.761128 5.169779 35.691792 18.985957 2.686479 5.372958 3.770101 11.91984 3.815252 17.947485 0.270905 90.346965 0.180604 180.693931 0.180604 270.995745 0 83.822659 0 167.645318 0.045151 251.513129-0.045151 14.628894-6.185674 26.097224-20.521088 32.260323z m-178.21063-458.055954c-69.351793-48.040565-147.214533-74.273242-233.610794-77.343504a404.777883 404.777883 0 0 0-127.032078 15.14813c-119.491876 34.292114-206.723429 104.569501-263.884477 208.077956-5.260081 9.662294-4.989175 19.189136 0.24833 28.919156a411.257038 411.257038 0 0 0 115.20254 134.66258c76.485637 57.860888 163.875218 87.705637 270.183029 89.015014 11.400604-0.925594 30.58974-1.715734 49.575696-4.244185a427.488789 427.488789 0 0 0 189.972442-74.024913 417.262109 417.262109 0 0 0 129.086443-143.444432c6.117948-11.016821 6.185674-21.604709 0.090302-32.711832a418.368306 418.368306 0 0 0-129.831433-144.05397z m65.44624 163.130228c-35.127406 57.973765-83.642056 103.576181-146.221213 135.678476a352.538283 352.538283 0 0 1-132.314734 38.310545c-11.152274 0.970745-22.417425 1.48998-28.332194 1.896338-67.613484-0.474085-125.722701-15.215856-179.610309-44.496219-58.809057-31.966842-104.501775-76.011552-138.071474-131.231112-1.444829-2.370423-1.264225-4.018431 0.090301-6.343702a357.32428 357.32428 0 0 1 123.803788-122.90077 360.010759 360.010759 0 0 1 130.960206-47.521329c82.829339-12.800282 160.376022 1.219074 232.820653 40.477788 58.425274 31.673361 103.508455 75.718071 136.829825 130.531273a6.321127 6.321127 0 0 1 0.045151 5.598712z" fill="#ffffff" p-id="5532"></path></svg>