<?xml version="1.0" standalone="no"?><!DOCTYPE svg PUBLIC "-//W3C//DTD SVG 1.1//EN" "http://www.w3.org/Graphics/SVG/1.1/DTD/svg11.dtd"><svg t="1537178223864" class="icon" style="" viewBox="0 0 1024 1024" version="1.1" xmlns="http://www.w3.org/2000/svg" p-id="10937" xmlns:xlink="http://www.w3.org/1999/xlink" width="200" height="200"><defs><style type="text/css"></style></defs><path d="M667.2896 117.32992 266.58816 117.32992c-26.90048 0-48.81408 21.92384-48.81408 48.82432l0 698.50112c0 26.9312 21.9136 48.82432 48.81408 48.82432l490.82368 0c26.9312 0 48.82432-21.89312 48.82432-48.82432L806.23616 268.29824 667.2896 117.32992zM678.8096 190.39232l60.90752 66.18112L678.8096 256.57344 678.8096 190.39232zM765.2352 864.64512c0 4.31104-3.52256 7.8336-7.8336 7.8336L266.58816 872.47872c-4.31104 0-7.81312-3.52256-7.81312-7.8336L258.77504 166.15424c0-4.31104 3.50208-7.80288 7.81312-7.80288l371.21024 0 0 118.7328c0 11.30496 9.20576 20.46976 20.51072 20.46976L765.2352 297.55392 765.2352 864.64512zM664.2688 558.56128l34.85696 27.5968 34.0992 0c5.66272 0 10.24 4.57728 10.24 10.24s-4.57728 10.24-10.24 10.24l-37.66272 0c-2.31424 0-4.54656-0.77824-6.35904-2.21184l-30.3104-24.00256-21.78048 23.00928c-2.26304 2.38592-5.55008 3.55328-8.78592 3.11296-3.24608-0.43008-6.11328-2.39616-7.65952-5.29408l-17.32608-32.16384-24.87296 77.49632c-1.45408 4.52608-5.92896 7.44448-10.56768 7.07584-4.74112-0.37888-8.59136-3.97312-9.29792-8.67328l-34.17088-225.024-42.3936 372.1216c-0.57344 5.03808-4.75136 8.89856-9.80992 9.07264-0.12288 0.01024-0.24576 0.01024-0.3584 0.01024-4.9152 0-9.17504-3.51232-10.06592-8.37632l-38.15424-206.37696-14.32576 96.2048c-0.7168 4.79232-4.70016 8.42752-9.54368 8.71424-4.87424 0.33792-9.20576-2.85696-10.47552-7.54688l-26.368-97.59744L344.064 628.79744c-1.6384 3.69664-5.31456 6.0928-9.35936 6.0928l-43.91936 0c-5.66272 0-10.24-4.57728-10.24-10.24s4.57728-10.24 10.24-10.24l37.26336 0 27.87328-62.94528c1.76128-3.96288 5.90848-6.43072 10.1376-6.06208 4.33152 0.32768 7.96672 3.34848 9.1136 7.53664l21.12512 78.19264 16.14848-108.41088c0.73728-4.94592 4.94592-8.64256 9.95328-8.73472 5.26336 0.18432 9.33888 3.46112 10.25024 8.37632l36.82304 199.2192 43.34592-380.5184c0.58368-5.09952 4.85376-8.98048 9.984-9.08288 4.92544 0.38912 9.55392 3.62496 10.31168 8.704l39.19872 258.11968 18.8928-58.88c1.24928-3.91168 4.72064-6.68672 8.8064-7.0656 4.17792-0.38912 8.00768 1.73056 9.95328 5.33504l22.02624 40.87808 18.49344-19.52768C654.1312 555.69408 660.10112 555.28448 664.2688 558.56128z" p-id="10938"></path></svg>