<?xml version="1.0" standalone="no"?><!DOCTYPE svg PUBLIC "-//W3C//DTD SVG 1.1//EN" "http://www.w3.org/Graphics/SVG/1.1/DTD/svg11.dtd"><svg t="1537178707967" class="icon" style="" viewBox="0 0 1024 1024" version="1.1" xmlns="http://www.w3.org/2000/svg" p-id="5684" xmlns:xlink="http://www.w3.org/1999/xlink" width="200" height="200"><defs><style type="text/css"></style></defs><path d="M848.363735 184.417105h-71.015662v-58.306173c0-34.994353-28.482442-63.477818-63.477818-63.477819h-567.304142c-34.995377 0-63.477818 28.483466-63.477819 63.477819v649.443294c0 34.994353 28.482442 63.477818 63.477819 63.477818h71.002351v58.306174c0 34.994353 28.482442 63.477818 63.477819 63.477819H848.363735c35.008687 0 63.477818-28.482442 63.477819-63.477819V247.894924c0-34.994353-28.469131-63.477818-63.477819-63.477819zM146.566113 782.995824c-4.103732 0-7.442622-3.337866-7.442623-7.442622V126.110932c0-4.103732 3.337866-7.442622 7.442623-7.442623h567.305165c4.103732 0 7.442622 3.337866 7.442623 7.442623v58.306173H281.045259c-34.994353 0-63.477818 28.482442-63.477819 63.477819v535.1009h-71.001327z m709.240245 114.342394c0 4.103732-3.337866 7.442622-7.441599 7.442623H281.045259c-4.103732 0-7.442622-3.337866-7.442622-7.442623V247.894924c0-4.103732 3.337866-7.442622 7.442622-7.442623H848.363735c4.103732 0 7.441599 3.337866 7.441599 7.442623v649.443294z" fill="#ffffff" p-id="5685"></path><path d="M572.920153 676.588542H413.007695c-15.472955 0-28.017598 12.531332-28.017598 28.017598S397.53474 732.623738 413.007695 732.623738h159.912458c15.472955 0 28.017598-12.531332 28.017598-28.017598s-12.544643-28.017598-28.017598-28.017598zM719.19241 525.008463H413.007695c-15.472955 0-28.017598 12.531332-28.017598 28.017598s12.544643 28.017598 28.017598 28.017598h306.184715c15.472955 0 28.017598-12.531332 28.017598-28.017598s-12.544643-28.017598-28.017598-28.017598zM719.19241 378.981938H413.007695c-15.472955 0-28.017598 12.531332-28.017598 28.017598s12.544643 28.017598 28.017598 28.017598h306.184715c15.472955 0 28.017598-12.531332 28.017598-28.017598s-12.544643-28.017598-28.017598-28.017598z" fill="#ffffff" p-id="5686"></path></svg>